<?xml version="1.0" encoding="UTF-8"?>
<svg width="196px" height="196px" viewBox="0 0 196 196" version="1.1" xmlns="http://www.w3.org/2000/svg" xmlns:xlink="http://www.w3.org/1999/xlink">
    <!-- Generator: Sketch 52.6 (67491) - http://www.bohemiancoding.com/sketch -->
    <title>pattern-dot-main</title>
    <desc>Created with Sketch.</desc>
    <defs>
        <polygon id="path-1" points="0 0.257772228 130.881677 0.257772228 130.881677 92.967033 0 92.967033"></polygon>
        <polyline id="path-3" points="0 0.259625492 130.881677 0.259625492 130.881677 93.6354234 0 93.6354234"></polyline>
    </defs>
    <g id="pattern-dot-main" stroke="none" stroke-width="1" fill="none" fill-rule="evenodd">
        <g transform="translate(34.000000, 49.000000)">
            <path d="M104.008127,6.23365214 C109.259037,10.1660978 112.695789,16.4929378 112.695789,23.626676 C112.695789,29.5421768 110.521285,35.2188692 106.729364,39.1187023 C104.885177,41.0154919 129.960317,22.154902 129.960317,22.154902 C129.960317,22.154902 102.788334,5.32049998 104.008127,6.23365214" id="Fill-1" fill="#F26F33"></path>
            <path d="M92.531746,94 L122.68254,94 L113.460107,82.6373626 L113.462241,82.6394142 C108.966772,89.2382989 101.069297,93.6594389 92.531746,94" id="Fill-3" fill="#F26F33"></path>
            <g id="Group-7">
                <mask id="mask-2" fill="white">
                    <use xlink:href="#path-1"></use>
                </mask>
                <g id="Clip-6"></g>
                <path d="M69.4194355,92.9650257 L34.8734677,75.6985122 L42.5612661,75.6985122 L42.5612661,17.3616991 L34.8734677,17.3616991 L34.8734677,0.257877872 L91.6154839,0.257877872 C103.591419,0.257877872 113.30021,9.9676506 113.30021,21.9424383 C113.30021,32.4815192 106.461798,41.4126931 96.5649597,43.3840167 C109.09025,44.3908074 117.68871,55.1475157 117.68871,68.0625382 C117.68871,81.6420637 106.301218,92.4199008 93.1008548,92.9671386 L69.4194355,92.9650257 Z" id="Fill-5" fill="#010202" mask="url(#mask-2)"></path>
            </g>
            <path d="M95.6507937,24.2741993 C95.6507937,31.9780336 89.3671726,38.2197802 81.6150794,38.2197802 C73.8629861,38.2197802 67.5793651,31.9780336 67.5793651,24.2741993 C67.5793651,16.5735207 73.8629861,10.3296703 81.6150794,10.3296703 C89.3671726,10.3296703 95.6507937,16.5735207 95.6507937,24.2741993" id="Fill-8" fill="#FEFEFE"></path>
            <path d="M93.5714286,22.7247242 C93.5714286,18.7314239 90.5453794,15.4945055 86.8134921,15.4945055 C83.0816048,15.4945055 80.0555556,18.7314239 80.0555556,22.7247242 C80.0555556,26.7191256 83.0816048,29.956044 86.8134921,29.956044 C90.5453794,29.956044 93.5714286,26.7191256 93.5714286,22.7247242" id="Fill-10" fill="#010202"></path>
            <g id="Group-14">
                <mask id="mask-4" fill="white">
                    <use xlink:href="#path-3"></use>
                </mask>
                <g id="Clip-13"></g>
                <path d="M6.56975565,54.436443 L69.4191185,54.436443 L69.4191185,93.6356362 L6.56975565,93.6356362 C2.9397879,93.6356362 -0.000316935484,90.6999529 -0.000316935484,87.0811566 C-0.000316935484,83.4602322 2.9397879,80.5266769 6.56975565,80.5266769 L6.56975565,80.6554256 C2.9397879,80.6554256 -0.000316935484,77.7208063 -0.000316935484,74.099882 C-0.000316935484,70.4810857 2.9397879,67.5475304 6.56975565,67.5475304 C2.9397879,67.5475304 -0.000316935484,64.6118471 -0.000316935484,60.9909227 C-0.000316935484,57.3710623 2.9397879,54.436443 6.56975565,54.436443" id="Fill-12" fill="#FFFFFF" mask="url(#mask-4)"></path>
            </g>
            <path d="M36.2203361,50.6153846 L82.1349206,50.6153846 L82.1349206,80.5714286 L36.2203361,80.5714286 C33.4425743,80.5714286 31.1904762,78.3287189 31.1904762,75.5626401 C31.1904762,72.7955105 33.4425743,70.5538517 36.2203361,70.5538517 L36.2203361,70.6515893 C33.4425743,70.6515893 31.1904762,68.4099305 31.1904762,65.6428009 C31.1904762,62.8777731 33.4425743,60.6361143 36.2203361,60.6361143 C33.4425743,60.6361143 31.1904762,58.3902518 31.1904762,55.624173 C31.1904762,52.8591453 33.4425743,50.6153846 36.2203361,50.6153846" id="Fill-15" fill="#FFDD17"></path>
        </g>
    </g>
</svg>