<?xml version="1.0" encoding="UTF-8"?>
<svg width="94px" height="94px" viewBox="0 0 94 94" version="1.1" xmlns="http://www.w3.org/2000/svg" xmlns:xlink="http://www.w3.org/1999/xlink">
    <!-- Generator: Sketch 52.5 (67469) - http://www.bohemiancoding.com/sketch -->
    <title>pattern-line</title>
    <desc>Created with Sketch.</desc>
    <g id="Page-1" stroke="none" stroke-width="1" fill="none" fill-rule="evenodd">
        <g id="Artboard" transform="translate(-179.000000, -173.000000)" fill="#FFFFFF">
            <g id="pattern-line" transform="translate(179.000000, 173.000000)">
                <path d="M0.641268797,0.453863068 L30.1158451,0.453863068 L30.1158451,29.9284393 L0.641268797,29.9284393 L0.641268797,0.453863068 Z M32.5056756,0.453863068 L61.9802518,0.453863068 L61.9802518,29.9284393 L32.5056756,29.9284393 L32.5056756,0.453863068 Z M32.5056756,32.3182698 L61.9802518,32.3182698 L61.9802518,61.7928461 L32.5056756,61.7928461 L32.5056756,32.3182698 Z M64.3700824,0.453863068 L77.74761,0.453863068 C86.6376662,0.453863068 93.8446586,7.66075066 93.8446586,16.5509117 L93.8446586,29.9284393 L64.3700824,29.9284393 L64.3700824,0.453863068 Z M0.641268797,32.3182698 L30.1158451,32.3182698 L30.1158451,61.7928461 L16.7383174,61.7928461 C7.84815639,61.7928461 0.641268797,54.5858537 0.641268797,45.6957975 L0.641268797,32.3182698 Z M64.3700824,32.3182698 L93.8446586,32.3182698 L93.8446586,61.7928461 L64.3700824,61.7928461 L64.3700824,32.3182698 Z M0.641268797,93.6572529 C0.641268797,81.1065853 0.641268797,74.8317755 3.95017643,70.5030738 C4.81623118,69.3702021 5.82900382,68.3578486 6.96192793,67.4916891 C11.2901581,64.1826766 17.5653871,64.1826766 30.1158451,64.1826766 L30.1158451,93.6572529 L0.641268797,93.6572529 Z M32.5056756,64.1826766 L61.9802518,64.1826766 L61.9802518,93.6572529 L32.5056756,93.6572529 L32.5056756,64.1826766 Z M64.3700824,64.1826766 L93.8446586,64.1826766 L93.8446586,93.6572529 L64.3700824,93.6572529 L64.3700824,64.1826766 Z" id="Shape"></path>
            </g>
        </g>
    </g>
</svg>